<svg width="480pt" height="290pt" viewBox="0 0 480 290" version="1.1" xmlns="http://www.w3.org/2000/svg" xmlns:xlink="http://www.w3.org/1999/xlink" xmlns:xml="http://www.w3.org/XML/1998/namespace">
  <g id="surface2" transform="matrix(0.651123583316803,0.0031451797112822533,-0.0031451797112822533,0.651123583316803,-113,64.3)">
    <path style=" stroke:none;fill-rule:evenodd;fill:rgb(64.705740%,25.490140%,18.039176%);fill-opacity:1;" d="M 263.898438 110.550781 C 268.933594 102.382812 271.550781 94.964844 271.750000 88.300781 C 272.082031 82.066406 271.250000 75.484375 269.250000 68.550781 C 268.316406 64.714844 268.683594 61.949219 270.351562 60.250000 C 272.050781 58.550781 274.566406 58.250000 277.898438 59.351562 C 280.800781 60.417969 283.535156 62.367188 286.101562 65.199219 C 288.667969 68.035156 290.535156 71.148438 291.699219 74.550781 C 293.464844 80.515625 292.535156 86.417969 288.898438 92.250000 C 284.167969 99.648438 276.648438 106.566406 266.351562 113.000000 C 262.316406 115.500000 261.500000 114.683594 263.898438 110.550781 "/>
    <path style=" stroke:none;fill-rule:evenodd;fill:rgb(15.294084%,38.039132%,36.078352%);fill-opacity:1;" d="M 214.750000 95.699219 C 209.050781 108.101562 206.332031 119.550781 206.601562 130.050781 C 206.765625 138.351562 209.449219 144.785156 214.648438 149.351562 C 217.785156 151.851562 221.367188 153.500000 225.398438 154.300781 C 229.464844 155.132812 233.132812 154.964844 236.398438 153.800781 C 240.066406 152.332031 242.132812 150.101562 242.601562 147.101562 C 243.035156 144.132812 241.632812 141.117188 238.398438 138.050781 C 231.898438 132.484375 226.882812 126.582031 223.351562 120.351562 C 219.851562 114.117188 218.148438 105.984375 218.250000 95.949219 C 218.117188 91.285156 216.949219 91.199219 214.750000 95.699219 M 229.500000 73.199219 C 217.265625 72.367188 206.898438 73.683594 198.398438 77.148438 C 191.699219 79.949219 187.167969 84.332031 184.800781 90.300781 C 183.566406 93.832031 183.101562 97.515625 183.398438 101.351562 C 183.699219 105.183594 184.699219 108.367188 186.398438 110.898438 C 188.464844 113.734375 190.750000 114.882812 193.250000 114.351562 C 195.714844 113.785156 197.800781 111.550781 199.500000 107.648438 C 202.367188 100.148438 205.984375 93.882812 210.351562 88.851562 C 214.750000 83.785156 221.316406 79.632812 230.050781 76.398438 C 234.351562 74.601562 234.167969 73.535156 229.500000 73.199219 M 256.800781 80.398438 C 250.667969 73.300781 244.515625 68.667969 238.351562 66.500000 C 232.582031 64.300781 226.117188 63.101562 218.949219 62.898438 C 215.015625 62.667969 212.500000 61.535156 211.398438 59.500000 C 210.332031 57.464844 210.816406 55.082031 212.851562 52.351562 C 214.750000 50.050781 217.417969 48.148438 220.851562 46.648438 C 224.316406 45.148438 227.832031 44.367188 231.398438 44.300781 C 237.500000 44.464844 242.750000 47.066406 247.148438 52.101562 C 252.683594 58.566406 256.933594 67.500000 259.898438 78.898438 C 261.000000 83.367188 259.964844 83.867188 256.800781 80.398438 "/>
  </g>
  <g id="surface4">
    <text style="fill:rgb(78,66,35)" font-family="Futura Md BT" font-size="47" id="0" transform="matrix(1,0,0,1,78,101.15) translate(2.815,48.065)" xml:space="preserve"><![CDATA[Interview  ing.com]]></text>
    <text style="fill:rgb(165,65,46)" font-family="Futura Md BT" font-size="47" transform="matrix(1,0,0,1,274,102.05) translate(2.815,48.065)" id="1" xml:space="preserve"><![CDATA[R]]></text>
    <text style="fill:rgb(108,108,108)" font-family="Futura Md BT" font-size="19" transform="matrix(1,0,0,1,277,152) translate(2,20.25)" id="2" xml:space="preserve"><![CDATA[Interview Marketplace]]></text>
  </g>
</svg>